<mxfile host="app.diagrams.net" agent="Mozilla/5.0 (Windows NT 10.0; Win64; x64; rv:136.0) Gecko/20100101 Firefox/136.0" version="26.2.8">
  <diagram name="Страница — 1" id="3rsoXGq9GuDa628_Vq3_">
    <mxGraphModel dx="1044" dy="571" grid="1" gridSize="10" guides="1" tooltips="1" connect="1" arrows="1" fold="1" page="1" pageScale="1" pageWidth="827" pageHeight="1169" math="0" shadow="0">
      <root>
        <mxCell id="0" />
        <mxCell id="1" parent="0" />
        <mxCell id="KMbMWtldICd3FMBPFfVI-9" value="" style="edgeStyle=orthogonalEdgeStyle;rounded=0;orthogonalLoop=1;jettySize=auto;html=1;" edge="1" parent="1" source="KMbMWtldICd3FMBPFfVI-2" target="KMbMWtldICd3FMBPFfVI-8">
          <mxGeometry relative="1" as="geometry" />
        </mxCell>
        <mxCell id="KMbMWtldICd3FMBPFfVI-2" value="Начало" style="rounded=1;whiteSpace=wrap;html=1;" vertex="1" parent="1">
          <mxGeometry x="310" y="80" width="120" height="60" as="geometry" />
        </mxCell>
        <mxCell id="KMbMWtldICd3FMBPFfVI-3" value="Блок схема для управления автомобилем" style="text;html=1;whiteSpace=wrap;overflow=hidden;rounded=0;align=center;" vertex="1" parent="1">
          <mxGeometry x="300" y="20" width="180" height="40" as="geometry" />
        </mxCell>
        <mxCell id="KMbMWtldICd3FMBPFfVI-11" value="" style="edgeStyle=orthogonalEdgeStyle;rounded=0;orthogonalLoop=1;jettySize=auto;html=1;" edge="1" parent="1" source="KMbMWtldICd3FMBPFfVI-8" target="KMbMWtldICd3FMBPFfVI-10">
          <mxGeometry relative="1" as="geometry" />
        </mxCell>
        <mxCell id="KMbMWtldICd3FMBPFfVI-8" value="&lt;div&gt;Зажигание&lt;/div&gt;&lt;div&gt;Скорость&lt;/div&gt;" style="shape=parallelogram;perimeter=parallelogramPerimeter;whiteSpace=wrap;html=1;fixedSize=1;" vertex="1" parent="1">
          <mxGeometry x="310" y="160" width="120" height="40" as="geometry" />
        </mxCell>
        <mxCell id="KMbMWtldICd3FMBPFfVI-17" value="" style="edgeStyle=orthogonalEdgeStyle;rounded=0;orthogonalLoop=1;jettySize=auto;html=1;" edge="1" parent="1" source="KMbMWtldICd3FMBPFfVI-10" target="KMbMWtldICd3FMBPFfVI-16">
          <mxGeometry relative="1" as="geometry" />
        </mxCell>
        <mxCell id="KMbMWtldICd3FMBPFfVI-10" value="Включение" style="whiteSpace=wrap;html=1;aspect=fixed;" vertex="1" parent="1">
          <mxGeometry x="335" y="230" width="70" height="70" as="geometry" />
        </mxCell>
        <mxCell id="KMbMWtldICd3FMBPFfVI-12" value="Конц" style="rounded=1;whiteSpace=wrap;html=1;" vertex="1" parent="1">
          <mxGeometry x="310" y="460" width="120" height="60" as="geometry" />
        </mxCell>
        <mxCell id="KMbMWtldICd3FMBPFfVI-15" style="edgeStyle=orthogonalEdgeStyle;rounded=0;orthogonalLoop=1;jettySize=auto;html=1;exitX=0.5;exitY=1;exitDx=0;exitDy=0;" edge="1" parent="1" source="KMbMWtldICd3FMBPFfVI-10" target="KMbMWtldICd3FMBPFfVI-10">
          <mxGeometry relative="1" as="geometry" />
        </mxCell>
        <mxCell id="KMbMWtldICd3FMBPFfVI-19" value="" style="edgeStyle=orthogonalEdgeStyle;rounded=0;orthogonalLoop=1;jettySize=auto;html=1;" edge="1" parent="1" source="KMbMWtldICd3FMBPFfVI-16" target="KMbMWtldICd3FMBPFfVI-18">
          <mxGeometry relative="1" as="geometry" />
        </mxCell>
        <mxCell id="KMbMWtldICd3FMBPFfVI-16" value="Газ" style="shape=parallelogram;perimeter=parallelogramPerimeter;whiteSpace=wrap;html=1;fixedSize=1;" vertex="1" parent="1">
          <mxGeometry x="310" y="330" width="120" height="30" as="geometry" />
        </mxCell>
        <mxCell id="KMbMWtldICd3FMBPFfVI-20" value="" style="edgeStyle=orthogonalEdgeStyle;rounded=0;orthogonalLoop=1;jettySize=auto;html=1;" edge="1" parent="1" source="KMbMWtldICd3FMBPFfVI-18" target="KMbMWtldICd3FMBPFfVI-12">
          <mxGeometry relative="1" as="geometry" />
        </mxCell>
        <mxCell id="KMbMWtldICd3FMBPFfVI-18" value="Нажать" style="whiteSpace=wrap;html=1;aspect=fixed;" vertex="1" parent="1">
          <mxGeometry x="347.5" y="390" width="45" height="45" as="geometry" />
        </mxCell>
        <mxCell id="KMbMWtldICd3FMBPFfVI-23" value="Покупка велосипедных шин" style="text;html=1;whiteSpace=wrap;overflow=hidden;rounded=0;align=center;" vertex="1" parent="1">
          <mxGeometry x="570" y="10" width="180" height="40" as="geometry" />
        </mxCell>
        <mxCell id="KMbMWtldICd3FMBPFfVI-32" value="" style="edgeStyle=orthogonalEdgeStyle;rounded=0;orthogonalLoop=1;jettySize=auto;html=1;" edge="1" parent="1" source="KMbMWtldICd3FMBPFfVI-24" target="KMbMWtldICd3FMBPFfVI-27">
          <mxGeometry relative="1" as="geometry" />
        </mxCell>
        <mxCell id="KMbMWtldICd3FMBPFfVI-24" value="Начало" style="rounded=1;whiteSpace=wrap;html=1;" vertex="1" parent="1">
          <mxGeometry x="590" y="60" width="120" height="60" as="geometry" />
        </mxCell>
        <mxCell id="KMbMWtldICd3FMBPFfVI-30" style="edgeStyle=orthogonalEdgeStyle;rounded=0;orthogonalLoop=1;jettySize=auto;html=1;entryX=0.5;entryY=0;entryDx=0;entryDy=0;" edge="1" parent="1" source="KMbMWtldICd3FMBPFfVI-27" target="KMbMWtldICd3FMBPFfVI-28">
          <mxGeometry relative="1" as="geometry" />
        </mxCell>
        <mxCell id="KMbMWtldICd3FMBPFfVI-27" value="Есть нужные шины" style="rhombus;whiteSpace=wrap;html=1;" vertex="1" parent="1">
          <mxGeometry x="590" y="150" width="120" height="110" as="geometry" />
        </mxCell>
        <mxCell id="KMbMWtldICd3FMBPFfVI-35" style="edgeStyle=orthogonalEdgeStyle;rounded=0;orthogonalLoop=1;jettySize=auto;html=1;entryX=0;entryY=0.5;entryDx=0;entryDy=0;exitX=0.5;exitY=1;exitDx=0;exitDy=0;" edge="1" parent="1" source="KMbMWtldICd3FMBPFfVI-28" target="KMbMWtldICd3FMBPFfVI-33">
          <mxGeometry relative="1" as="geometry" />
        </mxCell>
        <mxCell id="KMbMWtldICd3FMBPFfVI-28" value="Покупаю" style="whiteSpace=wrap;html=1;aspect=fixed;" vertex="1" parent="1">
          <mxGeometry x="500" y="270" width="80" height="80" as="geometry" />
        </mxCell>
        <mxCell id="KMbMWtldICd3FMBPFfVI-36" style="edgeStyle=orthogonalEdgeStyle;rounded=0;orthogonalLoop=1;jettySize=auto;html=1;entryX=1;entryY=0.5;entryDx=0;entryDy=0;" edge="1" parent="1" source="KMbMWtldICd3FMBPFfVI-29" target="KMbMWtldICd3FMBPFfVI-33">
          <mxGeometry relative="1" as="geometry" />
        </mxCell>
        <mxCell id="KMbMWtldICd3FMBPFfVI-29" value="Не покупаю" style="whiteSpace=wrap;html=1;aspect=fixed;" vertex="1" parent="1">
          <mxGeometry x="710" y="270" width="80" height="80" as="geometry" />
        </mxCell>
        <mxCell id="KMbMWtldICd3FMBPFfVI-31" style="edgeStyle=orthogonalEdgeStyle;rounded=0;orthogonalLoop=1;jettySize=auto;html=1;entryX=0.5;entryY=0;entryDx=0;entryDy=0;exitX=1;exitY=0.5;exitDx=0;exitDy=0;" edge="1" parent="1" source="KMbMWtldICd3FMBPFfVI-27" target="KMbMWtldICd3FMBPFfVI-29">
          <mxGeometry relative="1" as="geometry">
            <mxPoint x="740" y="240" as="sourcePoint" />
          </mxGeometry>
        </mxCell>
        <mxCell id="KMbMWtldICd3FMBPFfVI-33" value="Конец" style="rounded=1;whiteSpace=wrap;html=1;" vertex="1" parent="1">
          <mxGeometry x="590" y="400" width="120" height="60" as="geometry" />
        </mxCell>
        <mxCell id="KMbMWtldICd3FMBPFfVI-37" value="Блок-схема по написаню романа" style="text;html=1;whiteSpace=wrap;overflow=hidden;rounded=0;align=center;" vertex="1" parent="1">
          <mxGeometry x="30" y="20" width="180" height="40" as="geometry" />
        </mxCell>
        <mxCell id="KMbMWtldICd3FMBPFfVI-44" value="" style="edgeStyle=orthogonalEdgeStyle;rounded=0;orthogonalLoop=1;jettySize=auto;html=1;" edge="1" parent="1" source="KMbMWtldICd3FMBPFfVI-38" target="KMbMWtldICd3FMBPFfVI-40">
          <mxGeometry relative="1" as="geometry" />
        </mxCell>
        <mxCell id="KMbMWtldICd3FMBPFfVI-38" value="Начало" style="rounded=1;whiteSpace=wrap;html=1;" vertex="1" parent="1">
          <mxGeometry x="50" y="80" width="120" height="60" as="geometry" />
        </mxCell>
        <mxCell id="KMbMWtldICd3FMBPFfVI-45" value="" style="edgeStyle=orthogonalEdgeStyle;rounded=0;orthogonalLoop=1;jettySize=auto;html=1;" edge="1" parent="1" source="KMbMWtldICd3FMBPFfVI-40" target="KMbMWtldICd3FMBPFfVI-41">
          <mxGeometry relative="1" as="geometry" />
        </mxCell>
        <mxCell id="KMbMWtldICd3FMBPFfVI-40" value="Пока есть вдохновение" style="shape=trapezoid;perimeter=trapezoidPerimeter;whiteSpace=wrap;html=1;fixedSize=1;" vertex="1" parent="1">
          <mxGeometry x="50" y="170" width="120" height="60" as="geometry" />
        </mxCell>
        <mxCell id="KMbMWtldICd3FMBPFfVI-46" value="" style="edgeStyle=orthogonalEdgeStyle;rounded=0;orthogonalLoop=1;jettySize=auto;html=1;" edge="1" parent="1" source="KMbMWtldICd3FMBPFfVI-41" target="KMbMWtldICd3FMBPFfVI-42">
          <mxGeometry relative="1" as="geometry" />
        </mxCell>
        <mxCell id="KMbMWtldICd3FMBPFfVI-41" value="Пишу роман" style="whiteSpace=wrap;html=1;aspect=fixed;" vertex="1" parent="1">
          <mxGeometry x="70" y="260" width="80" height="80" as="geometry" />
        </mxCell>
        <mxCell id="KMbMWtldICd3FMBPFfVI-47" value="" style="edgeStyle=orthogonalEdgeStyle;rounded=0;orthogonalLoop=1;jettySize=auto;html=1;" edge="1" parent="1" source="KMbMWtldICd3FMBPFfVI-42" target="KMbMWtldICd3FMBPFfVI-43">
          <mxGeometry relative="1" as="geometry" />
        </mxCell>
        <mxCell id="KMbMWtldICd3FMBPFfVI-42" value="" style="shape=trapezoid;perimeter=trapezoidPerimeter;whiteSpace=wrap;html=1;fixedSize=1;rotation=-180;" vertex="1" parent="1">
          <mxGeometry x="50" y="370" width="120" height="60" as="geometry" />
        </mxCell>
        <mxCell id="KMbMWtldICd3FMBPFfVI-43" value="Конц" style="rounded=1;whiteSpace=wrap;html=1;" vertex="1" parent="1">
          <mxGeometry x="50" y="460" width="120" height="60" as="geometry" />
        </mxCell>
      </root>
    </mxGraphModel>
  </diagram>
</mxfile>
